PathFileType	4	(X/Y/Z)	OpenSim_Sub02_EMGStiffKnee_Accel.trc
DataRate	CameraRate	NumFrames	NumMarkers	Units	OrigDataRate	OrigDataStartFrame	OrigNumFrames
100	100	17	8	m	100	3946	7890
Frame#	Time	torso_imu_offset_imu	pelvis_imu_offset_imu	tibia_r_imu_offset_imu	femur_r_imu_offset_imu	tibia_l_imu_offset_imu	femur_l_imu_offset_imu	toes_r_imu_offset_imu	toes_l_imu_offset_imu
				X1	Y1	Z1	X2	Y2	Z2	X3	Y3	Z3	X4	Y4	Z4	X5	Y5	Z5	X6	Y6	Z6	X7	Y7	Z7	X8		Y8	Z8	

3946	39.45000000	10.96550121	-2.59767347	4.29812455	7.94803120	0.22062453	6.50371907	9.00695807	6.28137990	-3.50048716	12.23323293	-2.67242886	-2.25504478	5.11181199	-9.56988602	5.73616433	10.84362031	-2.53287770	2.82077086	5.28671512	-0.55402735	9.07509714	3.71557607	6.74955849	19.85636602
3947	39.46000000	10.99124542	-2.74166587	4.38472079	8.05859755	1.31975868	6.20114443	14.76525662	10.45334030	0.07599203	12.01350712	-3.10808852	-2.45367130	5.18240416	-8.68993950	2.91990105	11.36408096	-3.71211965	2.01136548	5.27462608	-1.73730373	9.02032185	-2.62356448	15.19685585	18.70984452
3948	39.47000000	11.08291360	-2.44143489	4.22194557	8.72873328	1.81459507	5.80442911	16.29836048	5.90232302	1.75335334	10.39003733	-2.96741832	-1.94265190	4.93784114	-6.22218277	2.22735840	12.17519093	-5.14212185	1.07450988	5.13623122	-0.47426029	8.90874346	-0.64904155	13.30992251	17.04743770
3949	39.48000000	10.84748174	-1.82844453	4.29602243	9.14885034	1.96599170	5.39615521	13.34584981	0.47768584	1.27204249	9.83625602	-2.47555251	-1.16296334	2.96781811	-4.44566401	4.45834410	12.07041161	-6.40380599	0.19678687	5.27836930	1.60734054	9.12577524	-3.18070582	7.95869664	15.35479777
3950	39.49000000	10.20986827	-1.24409245	4.54165068	9.58890523	1.93705090	5.36560327	11.32290934	-0.01541520	1.27208503	11.43832888	-1.77451377	-0.84609829	-0.12196566	-3.12708614	6.35017120	11.12279982	-7.04101613	-0.39209695	4.49903501	1.63523831	9.72924838	-2.87587333	1.76415114	14.31601703
3951	39.50000000	9.50408219	-0.75168337	4.74296910	9.59566946	1.75250080	5.46932017	9.65391507	1.12816330	2.58778117	12.19715913	-1.86405833	-1.11224384	-2.63529143	-2.50693621	6.66319898	10.14751347	-6.89366605	-0.46123964	4.56372555	0.26169656	9.48795503	-2.19181386	-2.08962057	14.44045181
3952	39.51000000	9.05074192	-0.46159469	4.84259051	9.11995897	1.40264083	5.42079106	8.87477033	1.07645951	2.91370189	11.23721082	-2.54507942	-1.34544990	-3.17656004	-3.39735272	5.49368730	9.66812326	-6.43437186	-0.33593328	4.85306143	0.61408571	9.20710214	-2.43529897	-3.11708779	14.07331053
3953	39.52000000	8.93199272	-0.38996745	4.74109029	8.71707086	0.97461836	5.36182312	9.62290227	0.70793825	2.63471603	10.47125412	-3.01615407	-0.96631967	-1.66211697	-5.58619819	3.37325882	9.55628559	-5.83806542	-0.16919897	4.86616897	1.25396331	9.10224681	-2.37257077	-2.44557508	14.24068341
3954	39.53000000	9.01786300	-0.53098755	4.84241673	8.24874838	0.50576970	5.15912402	10.42759002	1.64762676	2.22068180	9.79330587	-2.99939895	-0.17725391	0.21337069	-8.40949038	1.04630712	9.34492805	-5.19317812	0.10314695	4.68008292	1.09275059	9.00996631	-2.02070873	-1.78345437	14.18110162
3955	39.54000000	8.96714430	-0.75954384	4.99829191	7.86533929	0.16632999	4.98724366	10.01925162	2.98126041	1.77922963	8.86797893	-2.69809792	1.05788452	1.71499356	-11.07126759	-0.61604908	8.82166628	-4.65294170	0.22944200	5.21479548	0.44693373	8.65863852	-1.82398537	-0.97606466	14.11232079
3956	39.55000000	8.61131290	-0.86987221	4.97768410	7.54526422	0.01299117	4.81829362	9.35894684	3.47076093	1.51381208	7.83993028	-2.35010907	2.14569790	2.94115060	-12.52614961	-0.78189349	8.15111002	-4.35227181	0.21934958	5.47979457	0.07571860	8.33566794	-0.97721331	-0.22551092	14.40482573
3957	39.56000000	8.29844718	-0.92553348	5.26649944	7.25573837	0.07551745	4.51897068	8.84714573	3.09237089	1.06499895	7.15267310	-2.08078808	1.94258174	3.71046726	-11.98764507	0.38998858	7.65521861	-4.41856593	0.46685389	5.75606658	0.17700291	8.03166841	0.29174369	-0.58680740	14.48237523
3958	39.57000000	7.97538349	-1.00764203	5.35179173	6.98376034	0.23763495	4.31145998	8.75037099	2.52363088	0.96222926	7.05343821	-2.14313995	1.27829880	3.69705927	-9.43008031	2.01037132	7.51986841	-4.69536718	0.65900384	5.87542158	-0.22510042	7.84798563	1.59440390	-0.18796888	14.56579727
3959	39.58000000	7.56042780	-1.13463406	5.31457836	6.73888597	0.53538785	4.23430440	8.71097563	2.33599824	0.63945616	7.31534677	-2.23935349	1.02670202	3.05597199	-6.12696742	3.34267810	7.57200419	-4.83284395	0.50346729	5.53365060	-0.79332222	7.98989954	3.04040989	1.43066232	14.80843794
3960	39.59000000	7.13893191	-1.21295411	5.24708276	6.56003603	0.84436256	4.21521655	8.58529241	2.25195117	0.20846355	7.69470842	-1.90008270	0.69350938	2.90442125	-3.49088691	4.11733816	7.52780048	-4.64414678	0.19080976	5.75205101	-0.94970479	7.77990072	4.69826463	2.78672508	14.89764344
3961	39.60000000	6.74709717	-1.23104161	5.19190966	6.42085748	0.99941957	4.17280483	8.44555570	2.29319938	0.30023739	8.08270087	-1.30280887	0.27867803	3.90011624	-1.07501068	4.47789940	7.37451605	-4.33845834	-0.02503565	6.02960424	-0.90484922	7.47518899	6.21875755	3.27973816	14.54378106
3962	39.61000000	6.47234032	-1.27577772	5.11862266	6.48482285	1.04257190	4.20485501	8.44504981	2.28105846	0.52725428	8.45214338	-0.73113318	0.00398433	6.32987993	1.99271712	4.75198606	7.32475485	-3.84767887	0.24598585	6.35203786	-0.77085062	7.34213226	7.81368923	3.60999405	14.09832862
